<svg xmlns="http://www.w3.org/2000/svg" viewBox="0 0 64 64" role="img" aria-label="DotaGraph">
  <g fill="none" stroke-linecap="round" stroke-linejoin="round">
    <path d="M32 9 14 18 18 43 32 55" stroke="#2ea0ff" stroke-width="6"/>
    <path d="M32 9 50 18" stroke="#ff4b39" stroke-width="6"/>
    <path d="M32 9 32 31" stroke="#f6f8fa" stroke-width="5"/>
    <path d="M14 18 32 31" stroke="#2ea0ff" stroke-width="5"/>
    <path d="M18 43 32 31" stroke="#f6f8fa" stroke-width="5"/>
    <path d="M32 31 47 43 32 55" stroke="#ff4b39" stroke-width="6"/>
    <path d="M47 43 50 23" stroke="#ff4b39" stroke-width="6"/>
    <path d="m50 19-5 7 8 1Z" fill="#ff4b39" stroke="none"/>
  </g>

  <g stroke="#30363d" stroke-width="1">
    <circle cx="32" cy="9" r="6" fill="#ff4b39"/>
    <circle cx="14" cy="18" r="5.5" fill="#f6f8fa"/>
    <circle cx="50" cy="18" r="5.5" fill="#f6f8fa"/>
    <circle cx="32" cy="31" r="6" fill="#f6f8fa"/>
    <circle cx="18" cy="43" r="5.5" fill="#f6f8fa"/>
    <circle cx="32" cy="55" r="5.5" fill="#f6f8fa"/>
    <circle cx="47" cy="43" r="6" fill="#ff4b39"/>
  </g>
</svg>
